<svg width="170" height="34" viewBox="0 0 170 34" fill="none" xmlns="http://www.w3.org/2000/svg">
<g clip-path="url(#clip0_128_15403)">
<path fill-rule="evenodd" clip-rule="evenodd" d="M5.17766 3.12671C6.44832 2.02266 7.92494 1.18106 9.52241 0.650408C11.1199 0.119761 12.8066 -0.0894288 14.4853 0.0348999C16.164 0.159229 17.8015 0.614616 19.3033 1.37481C20.8052 2.135 22.1417 3.18496 23.2359 4.46415C25.5887 6.84346 26.9629 10.0191 27.0868 13.363C27.2106 16.7069 26.075 19.9755 23.9046 22.5223L13.8724 32.5545C11.8662 31.2171 8.52265 28.5422 9.86009 25.8659C12.535 22.5223 15.8758 19.8503 18.5548 16.5025C20.561 13.8276 19.2235 8.47646 15.2112 7.80774C14.3109 7.49302 13.3448 7.41475 12.4055 7.5804C11.4662 7.74606 10.5852 8.15011 9.84682 8.75384C9.10844 9.35757 8.53743 10.1408 8.18849 11.0284C7.83954 11.9161 7.72435 12.8785 7.85394 13.8234C7.85394 17.167 10.5288 19.1732 12.535 21.1807C10.5288 23.1869 7.85394 24.5243 7.85394 27.1964C5.84778 24.5215 2.50419 22.5154 1.16535 19.1704C-0.0574056 16.4328 -0.326613 13.3642 0.400799 10.4556C1.12821 7.54698 2.8102 4.96639 5.17766 3.12671Z" fill="#222222"/>
<path fill-rule="evenodd" clip-rule="evenodd" d="M47.9815 3.12674C48.6502 1.12059 50.6564 1.78931 51.9938 1.78931V26.5277H47.9815V24.5271C46.3713 25.8254 44.3651 26.5334 42.2967 26.5334C40.2283 26.5334 38.2221 25.8254 36.6119 24.5271C34.7597 22.836 33.6503 20.4818 33.5251 17.9769C33.3998 15.4719 34.2689 13.0188 35.9432 11.1514C37.4487 9.51272 39.4966 8.47451 41.7083 8.22865C43.9199 7.9828 46.1458 8.54592 47.9745 9.81393L47.9815 3.12674ZM41.9658 11.8215C38.6222 12.4902 35.9502 17.1712 38.6222 20.5162C39.1218 21.245 39.8043 21.8296 40.6013 22.2111C41.3982 22.5927 42.2815 22.7579 43.1625 22.6902C44.0435 22.6224 44.8912 22.3241 45.6204 21.8251C46.3496 21.3262 46.9347 20.6441 47.317 19.8475C49.3189 16.5025 45.9739 11.8201 41.9616 11.8201L41.9658 11.8215Z" fill="#222222"/>
<path fill-rule="evenodd" clip-rule="evenodd" d="M55.3374 8.47648H59.3497V9.81392C60.6871 7.80776 63.362 7.80776 66.0383 8.47648C65.3696 9.81392 64.7009 10.4826 64.7009 11.8201C62.026 11.1514 59.3511 12.4888 59.3511 14.4949V24.5271C58.681 26.5403 56.6748 26.5403 55.3374 26.5403V8.47648Z" fill="#222222"/>
<path fill-rule="evenodd" clip-rule="evenodd" d="M72.0567 8.47787C78.7453 5.80299 85.4325 12.4902 84.088 19.1788C82.7436 25.8673 73.3871 29.2109 68.6991 24.5285C63.3494 19.8475 65.3555 9.8153 72.0427 8.47787H72.0567ZM74.0629 11.8215C72.9398 12.1211 71.9157 12.7116 71.0938 13.5335C70.272 14.3553 69.6814 15.3795 69.3818 16.5025C69.2446 17.2655 69.2824 18.0498 69.4925 18.796C69.7027 19.5423 70.0795 20.2311 70.5947 20.8104C71.11 21.3898 71.75 21.8445 72.4666 22.1404C73.1833 22.4362 73.9577 22.5654 74.7316 22.5182C77.4065 22.5182 80.0813 20.512 80.0813 17.8371C80.0813 14.4963 76.7391 11.1527 74.0657 11.8215H74.0629Z" fill="#222222"/>
<path fill-rule="evenodd" clip-rule="evenodd" d="M86.7715 8.47649H90.7838V9.81393C92.6125 8.54592 94.8384 7.9828 97.05 8.22865C99.2617 8.4745 101.31 9.51271 102.815 11.1514C103.642 12.0107 104.284 13.0305 104.701 14.1477C105.118 15.2649 105.301 16.4558 105.24 17.6467C105.179 18.8376 104.874 20.0033 104.344 21.0717C103.814 22.1401 103.071 23.0886 102.16 23.8584C99.4855 27.202 94.1344 27.202 90.7908 25.1959V31.2115C90.1221 33.2177 88.1159 33.2177 86.7785 33.2177V8.47649H86.7715ZM95.4662 11.8201C91.4539 12.4888 89.4506 17.1698 91.4539 19.8461C93.4601 23.1897 98.8112 23.1897 100.149 19.8461C102.822 16.5011 99.4785 11.8201 95.4662 11.8201Z" fill="#222222"/>
<path fill-rule="evenodd" clip-rule="evenodd" d="M112.185 9.14662C113.878 8.19744 115.83 7.81519 117.756 8.05587C119.681 8.29654 121.479 9.14748 122.886 10.4841C122.218 11.1528 121.549 12.4902 120.211 13.1589C119.588 12.6539 118.856 12.3007 118.072 12.1272C117.289 11.9537 116.476 11.9646 115.698 12.1592C114.919 12.3537 114.197 12.7266 113.587 13.2482C112.978 13.7699 112.498 14.4261 112.185 15.1651C111.895 15.957 111.791 16.8053 111.881 17.644C111.972 18.4827 112.254 19.2893 112.707 20.001C113.16 20.7128 113.771 21.3105 114.492 21.7478C115.213 22.1851 116.026 22.4502 116.866 22.5224C118.204 22.5224 119.541 21.8537 120.879 21.8537C122.073 22.3797 123.028 23.334 123.554 24.5285C118.873 28.5409 110.847 27.2034 108.84 21.185C106.166 17.1712 108.172 11.8187 112.185 9.14662Z" fill="#222222"/>
<path fill-rule="evenodd" clip-rule="evenodd" d="M123.555 20.5148C121.551 14.4963 126.23 7.80774 132.25 7.80774C134.657 7.91284 136.959 8.82907 138.78 10.4076C140.602 11.986 141.836 14.134 142.282 16.5025V26.5347C140.276 26.5347 138.938 26.5347 137.601 25.1972C132.92 28.5408 125.569 25.8659 123.556 20.5162L123.555 20.5148ZM132.25 11.8201C131.329 11.9933 130.462 12.3844 129.723 12.9607C128.984 13.5369 128.394 14.2816 128.001 15.1326C127.608 15.9835 127.425 16.9161 127.466 17.8524C127.507 18.7887 127.771 19.7015 128.237 20.5148C130.912 23.8584 136.263 23.1897 137.601 19.8461C137.943 18.9642 138.068 18.0128 137.966 17.0723C137.863 16.1318 137.535 15.2299 137.01 14.4427C136.486 13.6555 135.779 13.0063 134.95 12.5498C134.122 12.0933 133.195 11.843 132.25 11.8201Z" fill="#222222"/>
<path fill-rule="evenodd" clip-rule="evenodd" d="M144.957 8.47788H148.969V9.81532C150.975 7.14044 155.657 7.80916 158.332 10.484C161.676 6.47173 168.364 7.80916 169.702 12.4902C170.371 16.5025 169.702 21.1849 169.702 25.1972C169.702 26.5347 167.696 26.5347 165.69 26.5347C165.69 22.5224 166.358 18.5087 165.69 14.5033C165.559 13.8012 165.186 13.1669 164.637 12.7105C164.088 12.254 163.396 12.0042 162.682 12.0042C161.968 12.0042 161.276 12.254 160.726 12.7105C160.177 13.1669 159.805 13.8012 159.674 14.5033V26.5347H155.662C155.773 22.288 155.549 18.0392 154.993 13.8276C154.324 11.1528 149.643 11.8215 149.643 14.4963C149.088 18.4814 148.864 22.5056 148.974 26.5277H144.957V8.47788Z" fill="#222222"/>
</g>
<defs>
<clipPath id="clip0_128_15403">
<rect width="170" height="33.2163" fill="white"/>
</clipPath>
</defs>
</svg>
