<svg width="30" height="30" viewBox="0 0 30 30" fill="none" xmlns="http://www.w3.org/2000/svg">
<path d="M27.4996 19.7584L18.6579 7.73341L19.8996 4.00841C19.9891 3.74266 20.0144 3.45947 19.9734 3.18206C19.9324 2.90464 19.8262 2.64089 19.6636 2.41242C19.501 2.18395 19.2865 1.99726 19.0378 1.86764C18.7892 1.73803 18.5133 1.66919 18.2329 1.66675H11.7912C11.5108 1.66919 11.2349 1.73803 10.9863 1.86764C10.7376 1.99726 10.5231 2.18395 10.3605 2.41242C10.1979 2.64089 10.0918 2.90464 10.0507 3.18206C10.0097 3.45947 10.035 3.74266 10.1246 4.00841L11.3662 7.73341L2.49956 19.7584C1.94909 20.5222 1.65711 21.442 1.66622 22.3834V23.8834C1.66513 24.4674 1.77921 25.0459 2.00193 25.5857C2.22465 26.1256 2.55165 26.6162 2.96421 27.0295C3.37676 27.4429 3.86678 27.7708 4.40621 27.9945C4.94564 28.2183 5.5239 28.3334 6.10789 28.3334H23.8912C25.0692 28.3334 26.199 27.8655 27.032 27.0325C27.8649 26.1995 28.3329 25.0698 28.3329 23.8917V22.3917C28.3438 21.4475 28.0517 20.5245 27.4996 19.7584ZM18.2079 3.44175L17.0246 7.00008H12.9746L11.7912 3.44175H18.2079ZM26.5412 23.8834C26.5412 24.5907 26.2603 25.2689 25.7602 25.769C25.2601 26.2691 24.5818 26.5501 23.8746 26.5501H6.10789C5.40064 26.5501 4.72237 26.2691 4.22227 25.769C3.72217 25.2689 3.44122 24.5907 3.44122 23.8834V22.3834C3.44814 21.8256 3.62873 21.2838 3.95789 20.8334L12.7829 8.77508H17.2162L26.0412 20.8334C26.3753 21.2907 26.5562 21.842 26.5579 22.4084L26.5412 23.8834Z" fill="#181A20"/>
<path d="M17.6842 18.5584H13.1759V17.1334H18.1759V15.3584H15.8842V14.1084H14.1092V15.3501H12.2842C12.0478 15.3501 11.821 15.444 11.6537 15.6112C11.4865 15.7784 11.3926 16.0052 11.3926 16.2417V19.4417C11.3926 19.6782 11.4865 19.905 11.6537 20.0722C11.821 20.2395 12.0478 20.3334 12.2842 20.3334H16.7926V21.7584H11.7926V23.5334H14.1009V24.7751H15.8759V23.5334H17.6759C17.793 23.5334 17.909 23.5103 18.0171 23.4655C18.1253 23.4207 18.2236 23.355 18.3064 23.2722C18.3892 23.1894 18.4549 23.0911 18.4997 22.983C18.5445 22.8748 18.5676 22.7588 18.5676 22.6417V19.4417C18.5654 19.2081 18.4716 18.9847 18.3065 18.8195C18.1413 18.6543 17.9178 18.5606 17.6842 18.5584Z" fill="#181A20"/>
</svg>
