<svg width="150" height="150" viewBox="0 0 150 150" fill="none" xmlns="http://www.w3.org/2000/svg">
<path d="M57.4053 73.498H34.5349C33.6476 73.498 32.9277 74.2179 32.9277 75.1051V100.424C32.9277 101.311 33.6476 102.031 34.5349 102.031C35.4221 102.031 36.142 101.311 36.142 100.424V76.7123H57.4053C58.2925 76.7123 59.0124 75.9924 59.0124 75.1051C59.0124 74.2179 58.2926 73.498 57.4053 73.498Z" fill="#EB6753"/>
<path d="M34.5349 104.85C33.6476 104.85 32.9277 105.57 32.9277 106.457V109.01C32.9277 109.897 33.6476 110.617 34.5349 110.617C35.4221 110.617 36.142 109.897 36.142 109.01V106.457C36.142 105.57 35.4221 104.85 34.5349 104.85Z" fill="#EB6753"/>
<path d="M125.074 41.3217C125.521 41.3217 125.966 41.1375 126.283 40.7755C126.869 40.108 126.803 39.093 126.135 38.5071L107.909 22.5131C107.243 21.9271 106.226 21.9941 105.642 22.6596C105.056 23.3271 105.122 24.3421 105.789 24.928L124.015 40.922C124.32 41.1898 124.698 41.3217 125.074 41.3217Z" fill="#EB6753"/>
<path d="M102.432 21.4542C102.879 21.4542 103.322 21.27 103.641 20.908C104.226 20.2405 104.161 19.2255 103.494 18.6396L102.694 17.9365C102.026 17.3505 101.012 17.4175 100.425 18.083C99.8392 18.7505 99.9052 19.7655 100.572 20.3514L101.372 21.0545C101.678 21.3224 102.055 21.4542 102.432 21.4542Z" fill="#EB6753"/>
<path d="M125.468 85.3661V68.3304H134.04C138.69 68.3304 140.854 62.5661 137.361 59.5018L78.3043 7.68752C76.4186 6.01603 73.5471 6.01603 71.6613 7.68752L46.7399 29.5446V22.8803H49.1186C50.5328 22.8803 51.6899 21.7446 51.6899 20.3088V12.5303C51.6899 11.116 50.5328 9.95895 49.1186 9.95895H23.1257C21.7114 9.95895 20.5543 11.116 20.5543 12.5303V20.3088C20.5543 21.7446 21.7114 22.8803 23.1257 22.8803H25.5043V48.1874L12.6471 59.5018C9.13283 62.566 11.3186 68.3304 15.9685 68.3304H24.5614V140.352H20.0186C19.1399 140.352 18.4114 141.08 18.4114 141.959C18.4114 142.837 19.1399 143.566 20.0186 143.566H129.99C130.89 143.566 131.597 142.837 131.597 141.959C131.597 141.08 130.89 140.352 129.99 140.352H125.468V123.102C133.311 120.423 138.99 112.987 138.99 104.223C138.99 95.4803 133.311 88.0447 125.468 85.3661ZM23.7685 19.666V13.1732H48.4756V19.666H23.7685ZM43.5256 22.9018V32.3731L28.7185 45.3589V22.9018H43.5256ZM15.9685 65.1161C14.2757 65.1161 13.4829 63.016 14.7471 61.9018L73.7828 10.0875C74.1257 9.7875 74.5543 9.63748 74.9828 9.63748C75.4114 9.63748 75.84 9.7875 76.1828 10.0875L135.24 61.9018C136.504 63.016 135.733 65.1161 134.04 65.1161H15.9685ZM122.254 140.352C83.3829 140.352 85.697 140.352 27.7757 140.352V68.3304H122.254V84.5518C113.726 83.1589 104.876 87.5303 100.997 95.7589H76.6114V88.666C76.6114 84.916 73.59 81.8945 69.84 81.8945C66.1328 81.8945 63.09 84.9375 63.09 88.666V119.823C63.09 123.509 66.0686 126.595 69.84 126.595C73.59 126.595 76.6114 123.552 76.6114 119.823V112.709H100.997C104.383 119.887 111.54 124.195 119.04 124.195C120.069 124.195 121.397 124.066 122.254 123.916V140.352ZM99.7756 109.495H66.3042V98.9732C66.3042 98.9732 70.2899 98.9946 99.7756 98.9732C98.94 102.08 98.8113 105.916 99.7756 109.495ZM73.3971 112.709V119.823C73.3971 121.773 71.8114 123.38 69.84 123.38C67.9114 123.38 66.3042 121.795 66.3042 119.823V112.709H73.3971ZM66.3042 95.7589V88.666C66.3042 86.6947 67.8899 85.1088 69.84 85.1088C71.8114 85.1088 73.3971 86.716 73.3971 88.666V95.7589H66.3042ZM119.04 120.98C114.69 120.98 110.747 119.287 107.747 116.566C104.769 113.845 102.776 110.073 102.369 105.916C101.383 96.016 109.247 87.5089 119.04 87.5089C128.211 87.5089 135.776 94.9875 135.776 104.223C135.776 113.566 128.126 120.98 119.04 120.98Z" fill="#181A20"/>
<path d="M119.04 87.509C109.247 87.509 101.383 96.0161 102.369 105.916C102.776 110.073 104.769 113.845 107.747 116.566C110.747 119.287 114.69 120.98 119.04 120.98C128.126 120.98 135.776 113.566 135.776 104.223C135.776 94.9875 128.212 87.509 119.04 87.509ZM123.347 111.38C119.404 111.38 116.212 108.166 116.212 104.245C116.212 100.302 119.404 97.0875 123.347 97.0875C127.29 97.0875 130.504 100.302 130.504 104.245C130.504 108.166 127.29 111.38 123.347 111.38Z" fill="url(#paint0_linear_206_24678)"/>
<path d="M73.3975 88.666V95.7589H66.3047V88.666C66.3047 86.6946 67.8904 85.1088 69.8404 85.1088C71.8118 85.1088 73.3975 86.716 73.3975 88.666Z" fill="#DDDDDD"/>
<path d="M73.3975 112.709V119.823C73.3975 121.773 71.8118 123.38 69.8404 123.38C67.9118 123.38 66.3047 121.795 66.3047 119.823V112.709H73.3975Z" fill="#DDDDDD"/>
<path d="M23.7676 13.1743H48.4747V19.6671H23.7676V13.1743Z" fill="url(#paint1_linear_206_24678)"/>
<path d="M43.5258 22.9017V32.3731L28.7188 45.3588V22.9017H43.5258Z" fill="url(#paint2_linear_206_24678)"/>
<path d="M75.004 30.0375C68.0183 30.0375 62.3184 35.7375 62.3184 42.7232C62.3184 49.7089 68.0183 55.3874 75.004 55.3874C81.9898 55.3874 87.6684 49.7089 87.6684 42.7232C87.6684 35.7375 81.9898 30.0375 75.004 30.0375ZM75.004 52.1731C69.7969 52.1731 65.5326 47.9303 65.5326 42.7232C65.5326 37.4946 69.7969 33.2518 75.004 33.2518C80.2111 33.2518 84.4541 37.4946 84.4541 42.7232C84.4541 47.9303 80.2112 52.1731 75.004 52.1731Z" fill="#181A20"/>
<path d="M84.4547 42.7232C84.4547 47.9303 80.2117 52.1732 75.0046 52.1732C69.7975 52.1732 65.5332 47.9303 65.5332 42.7232C65.5332 37.4946 69.7975 33.2518 75.0046 33.2518C80.2117 33.2518 84.4547 37.4946 84.4547 42.7232Z" fill="#DDDDDD"/>
<path d="M85.3962 121.08H86.3724C87.2597 121.08 87.9796 120.36 87.9796 119.473C87.9796 118.586 87.2597 117.866 86.3724 117.866H85.3962C84.5089 117.866 83.7891 118.586 83.7891 119.473C83.7891 120.36 84.5089 121.08 85.3962 121.08Z" fill="#EB6753"/>
<path d="M91.8396 121.08H100.684C101.571 121.08 102.291 120.36 102.291 119.473C102.291 118.586 101.571 117.866 100.684 117.866H91.8396C90.9523 117.866 90.2324 118.586 90.2324 119.473C90.2324 120.36 90.9523 121.08 91.8396 121.08Z" fill="#EB6753"/>
<path d="M123.347 97.0875C119.404 97.0875 116.211 100.302 116.211 104.245C116.211 108.166 119.404 111.38 123.347 111.38C127.289 111.38 130.504 108.166 130.504 104.245C130.504 100.302 127.289 97.0875 123.347 97.0875ZM123.347 108.166C121.182 108.166 119.425 106.409 119.425 104.245C119.425 102.08 121.182 100.302 123.347 100.302C125.511 100.302 127.289 102.08 127.289 104.245C127.289 106.409 125.511 108.166 123.347 108.166Z" fill="#181A20"/>
<defs>
<linearGradient id="paint0_linear_206_24678" x1="119.03" y1="87.509" x2="119.03" y2="120.98" gradientUnits="userSpaceOnUse">
<stop stop-color="#DDDDDD" stop-opacity="0"/>
<stop offset="1" stop-color="#DDDDDD"/>
</linearGradient>
<linearGradient id="paint1_linear_206_24678" x1="36.1211" y1="13.1743" x2="36.1211" y2="19.6671" gradientUnits="userSpaceOnUse">
<stop stop-color="#DDDDDD" stop-opacity="0"/>
<stop offset="1" stop-color="#DDDDDD"/>
</linearGradient>
<linearGradient id="paint2_linear_206_24678" x1="36.1223" y1="22.9017" x2="36.1223" y2="45.3588" gradientUnits="userSpaceOnUse">
<stop stop-color="#DDDDDD" stop-opacity="0"/>
<stop offset="1" stop-color="#DDDDDD"/>
</linearGradient>
</defs>
</svg>
