<svg width="30" height="30" viewBox="0 0 30 30" fill="none" xmlns="http://www.w3.org/2000/svg">
<g clip-path="url(#clip0_206_24730)">
<path d="M22.7522 17.8124C22.3798 17.8146 22.0107 17.7428 21.6663 17.6011C21.3219 17.4595 21.0091 17.2509 20.746 16.9874L19.321 15.5624L17.8116 17.0812C17.6276 17.2652 17.378 17.3685 17.1178 17.3685C16.8576 17.3685 16.6081 17.2652 16.4241 17.0812C16.2401 16.8972 16.1367 16.6476 16.1367 16.3874C16.1367 16.1272 16.2401 15.8777 16.4241 15.6937L18.6647 13.4531C18.754 13.3593 18.8618 13.2851 18.9812 13.2351C19.1006 13.1851 19.229 13.1603 19.3585 13.1624C19.4879 13.1603 19.6164 13.1851 19.7358 13.2351C19.8552 13.2851 19.9629 13.3593 20.0522 13.4531L22.171 15.5718C22.3019 15.677 22.4588 15.745 22.625 15.7688C22.7913 15.7926 22.9609 15.7713 23.1162 15.7071C23.2714 15.6429 23.4065 15.5382 23.5074 15.4039C23.6083 15.2696 23.6713 15.1106 23.6897 14.9437C23.6896 14.8282 23.6663 14.714 23.6212 14.6077C23.5761 14.5014 23.5101 14.4052 23.4272 14.3249L21.271 12.1874C21.1743 12.0996 21.097 11.9925 21.0442 11.873C20.9913 11.7535 20.964 11.6243 20.964 11.4937C20.964 11.363 20.9913 11.2338 21.0442 11.1144C21.097 10.9949 21.1743 10.8878 21.271 10.7999L23.8866 8.1843C23.9759 8.09059 24.0836 8.01638 24.203 7.96636C24.3224 7.91635 24.4509 7.8916 24.5803 7.89368C24.7098 7.8916 24.8382 7.91635 24.9576 7.96636C25.077 8.01638 25.1848 8.09059 25.2741 8.1843L26.5116 9.4218C26.6838 9.57728 26.9077 9.66334 27.1397 9.66334C27.3718 9.66334 27.5956 9.57728 27.7678 9.4218C27.9233 9.24954 28.0094 9.02573 28.0094 8.79368C28.0094 8.56163 27.9233 8.33782 27.7678 8.16555L26.5397 6.93743C26.443 6.84956 26.3658 6.74245 26.3129 6.62298C26.2601 6.50352 26.2328 6.37432 26.2328 6.24368C26.2328 6.11304 26.2601 5.98384 26.3129 5.86437C26.3658 5.7449 26.443 5.6378 26.5397 5.54993L27.4116 4.68743C27.6908 4.40895 27.8491 4.03174 27.8522 3.63743C27.8554 3.42517 27.8127 3.21473 27.7269 3.02054C27.6411 2.82636 27.5144 2.65302 27.3553 2.51243C27.0373 2.26204 26.6363 2.14124 26.2328 2.17428C25.8294 2.20732 25.4534 2.39176 25.1803 2.69055C25.0837 2.77673 24.971 2.84303 24.8487 2.88567C24.7265 2.9283 24.597 2.94644 24.4677 2.93904C24.2066 2.9241 23.9622 2.80605 23.7881 2.61087C23.6141 2.41568 23.5247 2.15935 23.5397 1.89827C23.5546 1.63718 23.6726 1.39273 23.8678 1.21868C24.5007 0.592375 25.3467 0.228029 26.2366 0.198482C27.1265 0.168934 27.9948 0.476362 28.6678 1.0593C29.0329 1.38334 29.324 1.78212 29.5213 2.22857C29.7187 2.67503 29.8177 3.15871 29.8116 3.6468C29.8081 4.55355 29.4477 5.42245 28.8085 6.06555L28.6303 6.24368L29.1741 6.78743C29.7099 7.322 30.0114 8.04754 30.0123 8.80443C30.0132 9.56131 29.7133 10.2875 29.1788 10.8234C28.6442 11.3592 27.9187 11.6607 27.1618 11.6616C26.4049 11.6625 25.6786 11.3626 25.1428 10.8281L24.5897 10.3124L23.3522 11.5499L24.7678 12.9749C25.0357 13.2369 25.2486 13.5497 25.3939 13.895C25.5392 14.2403 25.614 14.6112 25.614 14.9859C25.614 15.3605 25.5392 15.7314 25.3939 16.0767C25.2486 16.4221 25.0357 16.7349 24.7678 16.9968C24.5028 17.2597 24.1881 17.4672 23.842 17.6073C23.496 17.7473 23.1255 17.8171 22.7522 17.8124Z" fill="#181A20"/>
<path d="M22.725 3.75005C22.6372 3.65337 22.5301 3.57613 22.4106 3.52327C22.2911 3.47042 22.1619 3.44312 22.0313 3.44312C21.9007 3.44312 21.7715 3.47042 21.652 3.52327C21.5325 3.57613 21.4254 3.65337 21.3375 3.75005L10.4907 14.5875C8.60765 13.9433 6.55016 14.0385 4.73475 14.8541C2.91935 15.6697 1.48166 17.1446 0.712773 18.9803C-0.0561178 20.816 -0.0987653 22.8752 0.593464 24.7412C1.28569 26.6071 2.66108 28.1403 4.44116 29.0303C6.22125 29.9204 8.27303 30.1008 10.1811 29.535C12.0892 28.9692 13.711 27.6995 14.7182 25.983C15.7254 24.2665 16.0427 22.2314 15.606 20.2897C15.1692 18.3481 14.0109 16.6449 12.3657 15.525L22.725 5.12817C22.8202 5.04038 22.8962 4.93383 22.9481 4.81524C23 4.69665 23.0269 4.56858 23.0269 4.43911C23.0269 4.30964 23 4.18157 22.9481 4.06298C22.8962 3.94438 22.8202 3.83784 22.725 3.75005ZM13.7344 21.9657C13.7344 23.1301 13.3891 24.2684 12.7422 25.2366C12.0953 26.2048 11.1758 26.9594 10.1 27.405C9.02417 27.8506 7.84039 27.9672 6.69833 27.74C5.55626 27.5129 4.50721 26.9521 3.68383 26.1288C2.86045 25.3054 2.29972 24.2563 2.07255 23.1143C1.84538 21.9722 1.96197 20.7884 2.40758 19.7126C2.85319 18.6368 3.60781 17.7173 4.576 17.0704C5.5442 16.4235 6.68249 16.0782 7.84692 16.0782C8.62008 16.0782 9.38567 16.2305 10.1 16.5263C10.8143 16.8222 11.4633 17.2559 12.01 17.8026C12.5567 18.3493 12.9904 18.9983 13.2863 19.7126C13.5821 20.4269 13.7344 21.1925 13.7344 21.9657Z" fill="#181A20"/>
<path d="M5.97281 24.8061C5.76687 24.8352 5.55712 24.795 5.37655 24.6917C5.19599 24.5885 5.05487 24.4282 4.97541 24.236C4.89595 24.0438 4.88267 23.8306 4.93764 23.63C4.99261 23.4295 5.11272 23.2528 5.27906 23.128L6.21656 22.1905C6.30459 22.0963 6.41031 22.0204 6.52767 21.9671C6.64504 21.9138 6.77176 21.8841 6.90061 21.8797C7.02945 21.8754 7.15788 21.8964 7.27858 21.9417C7.39928 21.987 7.50988 22.0556 7.60406 22.1436C7.69825 22.2317 7.77417 22.3374 7.8275 22.4547C7.88082 22.5721 7.91051 22.6988 7.91486 22.8277C7.91921 22.9565 7.89815 23.085 7.85286 23.2057C7.80758 23.3264 7.73897 23.437 7.65094 23.5311L6.71344 24.4686C6.62329 24.5769 6.50989 24.6635 6.38166 24.7219C6.25344 24.7804 6.11369 24.8092 5.97281 24.8061Z" fill="#181A20"/>
</g>
<defs>
<clipPath id="clip0_206_24730">
<rect width="30" height="30" fill="white"/>
</clipPath>
</defs>
</svg>
