<svg width="150" height="150" viewBox="0 0 150 150" fill="none" xmlns="http://www.w3.org/2000/svg">
<path d="M44.4604 73.6758H27.238C26.3507 73.6758 25.6309 74.3957 25.6309 75.2829V92.8046C25.6309 93.6918 26.3507 94.4117 27.238 94.4117C28.1253 94.4117 28.8451 93.6918 28.8451 92.8046V76.8901H44.4604C45.3477 76.8901 46.0675 76.1702 46.0675 75.2829C46.0675 74.3957 45.3477 73.6758 44.4604 73.6758Z" fill="#EB6753"/>
<path d="M27.238 97.9462C26.3507 97.9462 25.6309 98.666 25.6309 99.5533V101.732C25.6309 102.619 26.3507 103.339 27.238 103.339C28.1253 103.339 28.8451 102.619 28.8451 101.732V99.5533C28.8451 98.666 28.1253 97.9462 27.238 97.9462Z" fill="#EB6753"/>
<path d="M100.677 21.5588C100.091 22.2263 100.158 23.2433 100.823 23.8272L124.359 44.4773C125.025 45.0613 126.04 44.9993 126.628 44.3308C127.213 43.6633 127.147 42.6462 126.481 42.0624L102.945 21.4123C102.278 20.8263 101.265 20.8891 100.677 21.5588Z" fill="#EB6753"/>
<path d="M94.6006 16.2309C94.0168 16.8984 94.0837 17.9134 94.7513 18.4993L95.7327 19.3594C96.4108 19.9492 97.4206 19.8695 98.0011 19.2087C98.585 18.5412 98.518 17.5262 97.8505 16.9403L96.869 16.0802C96.2015 15.4985 95.1865 15.5612 94.6006 16.2309Z" fill="#EB6753"/>
<path d="M71.0486 29.8981C63.9772 29.8981 58.2344 35.6624 58.2344 42.7338C58.2344 49.7839 63.9772 55.5267 71.0486 55.5267C78.0986 55.5267 83.8414 49.7839 83.8414 42.7338C83.8414 35.6624 78.0986 29.8981 71.0486 29.8981ZM71.0486 52.3125C65.7558 52.3125 61.4487 48.0053 61.4487 42.7338C61.4487 37.4196 65.7558 33.1124 71.0486 33.1124C76.3201 33.1124 80.6271 37.4196 80.6271 42.7338C80.6271 48.0053 76.3201 52.3125 71.0486 52.3125Z" fill="#181A20"/>
<path d="M52.1068 114.027C52.1068 114.927 51.3783 115.634 50.4997 115.634H48.2497C47.3498 115.634 46.6426 114.927 46.6426 114.027C46.6426 113.148 47.3498 112.42 48.2497 112.42H50.4997C51.3783 112.42 52.1068 113.148 52.1068 114.027Z" fill="#181A20"/>
<path d="M113.653 96.8768H98.0251C97.1378 96.8768 96.418 97.5967 96.418 98.484C96.418 99.3712 97.1378 100.091 98.0251 100.091H113.653C114.54 100.091 115.26 99.3712 115.26 98.484C115.26 97.5967 114.54 96.8768 113.653 96.8768Z" fill="#EB6753"/>
<path d="M92.4898 96.8768H92.1696C91.2824 96.8768 90.5625 97.5967 90.5625 98.484C90.5625 99.3712 91.2824 100.091 92.1696 100.091H92.4898C93.3771 100.091 94.097 99.3712 94.097 98.484C94.097 97.5967 93.3771 96.8768 92.4898 96.8768Z" fill="#EB6753"/>
<path d="M139.321 105.412H124.985V68.341H130.064C134.735 68.341 136.899 62.5553 133.407 59.491L74.3494 7.67674C72.4424 6.00538 69.5923 6.00538 67.6851 7.67674L42.7851 29.5554V22.8911H45.1422C46.578 22.8911 47.7351 21.7339 47.7351 20.3196V12.5411C47.7351 11.1267 46.578 9.96962 45.1422 9.96962H19.1708C17.7351 9.96962 16.578 11.1267 16.578 12.5411V20.3196C16.578 21.7339 17.7351 22.8911 19.1708 22.8911H21.5495V48.1982L8.6709 59.491C5.17802 62.5767 7.36378 68.341 12.0138 68.341H17.0923V140.363H11.4566C10.5781 140.363 9.84947 141.07 9.84947 141.97C9.84947 142.848 10.5781 143.577 11.4566 143.577H11.5852H139.321C141.378 143.577 143.049 141.884 143.049 139.827V109.141C143.049 107.084 141.378 105.412 139.321 105.412ZM19.7923 19.6768V13.1839H44.5209V19.6768H19.7923ZM39.5709 22.8911V32.3625L24.7638 45.3696V22.8911H39.5709ZM12.0138 65.1267C10.3208 65.1267 9.52798 63.0268 10.7923 61.9124L69.8065 10.0982C70.4923 9.49823 71.5423 9.49823 72.228 10.0982L131.285 61.9124C132.549 63.0268 131.778 65.1267 130.064 65.1267H12.0138ZM38.0494 90.2625V140.363H20.3066V68.341H121.771V105.412H78.2709V90.2625C78.2709 87.091 75.6779 84.4982 72.5066 84.4982H43.8351C40.6423 84.4982 38.0494 87.091 38.0494 90.2625ZM75.0566 105.455C73.2566 105.712 71.8423 107.32 71.8423 109.141C71.8637 121.891 71.7994 139.72 71.8852 140.363H41.2637V90.2625C41.2637 88.8696 42.4209 87.7125 43.8351 87.7125H72.5065C73.8995 87.7125 75.0565 88.8696 75.0565 90.2625V105.455H75.0566ZM139.835 139.827C139.835 140.127 139.599 140.363 139.321 140.363H75.5708C75.4208 140.363 75.078 140.127 75.078 139.848V109.141C75.078 108.863 75.3566 108.627 75.5708 108.627C76.8137 108.648 122.114 108.627 139.321 108.627C139.599 108.627 139.835 108.863 139.835 109.141V139.827Z" fill="#181A20"/>
<path d="M72.5066 87.7125H43.8351C42.4209 87.7125 41.2637 88.8696 41.2637 90.2625V140.363H71.8852C71.7994 139.72 71.8637 121.891 71.8423 109.141C71.8423 107.32 73.2566 105.712 75.0566 105.455V90.2625C75.0566 88.8696 73.8995 87.7125 72.5066 87.7125ZM50.4994 115.634H48.2494C47.3494 115.634 46.6422 114.927 46.6422 114.027C46.6422 113.148 47.3494 112.42 48.2494 112.42H50.4994C51.378 112.42 52.1065 113.148 52.1065 114.027C52.1065 114.927 51.378 115.634 50.4994 115.634Z" fill="url(#paint0_linear_206_24623)"/>
<path d="M19.791 13.1829H44.5196V19.6757H19.791V13.1829Z" fill="url(#paint1_linear_206_24623)"/>
<path d="M39.5708 22.8911V32.3625L24.7637 45.3697V22.8911H39.5708Z" fill="url(#paint2_linear_206_24623)"/>
<path d="M80.6277 42.7338C80.6277 48.0053 76.3206 52.3125 71.0492 52.3125C65.7564 52.3125 61.4492 48.0053 61.4492 42.7338C61.4492 37.4196 65.7564 33.1124 71.0492 33.1124C76.3206 33.1124 80.6277 37.4196 80.6277 42.7338Z" fill="#DDDDDD"/>
<path d="M88.3427 118.805C85.2141 118.805 82.6641 121.355 82.6641 124.484C82.6641 127.634 85.2141 130.184 88.3427 130.184C91.4926 130.184 94.0212 127.634 94.0212 124.484C94.0212 121.355 91.4926 118.805 88.3427 118.805ZM88.3427 126.97C86.9927 126.97 85.8783 125.855 85.8783 124.484C85.8783 123.134 86.9927 122.02 88.3427 122.02C89.7141 122.02 90.8069 123.134 90.8069 124.484C90.8069 125.855 89.7141 126.97 88.3427 126.97Z" fill="#181A20"/>
<path d="M90.8074 124.484C90.8074 125.855 89.7147 126.97 88.3432 126.97C86.9932 126.97 85.8789 125.855 85.8789 124.484C85.8789 123.134 86.9932 122.02 88.3432 122.02C89.7147 122.02 90.8074 123.134 90.8074 124.484Z" fill="#DDDDDD"/>
<path d="M126.55 118.805C123.421 118.805 120.871 121.355 120.871 124.484C120.871 127.634 123.421 130.184 126.55 130.184C129.678 130.184 132.228 127.634 132.228 124.484C132.228 121.355 129.678 118.805 126.55 118.805ZM126.55 126.97C125.178 126.97 124.085 125.855 124.085 124.484C124.085 123.134 125.178 122.02 126.55 122.02C127.921 122.02 129.014 123.134 129.014 124.484C129.014 125.855 127.921 126.97 126.55 126.97Z" fill="#181A20"/>
<path d="M129.014 124.484C129.014 125.855 127.922 126.97 126.55 126.97C125.179 126.97 124.086 125.855 124.086 124.484C124.086 123.134 125.179 122.02 126.55 122.02C127.922 122.02 129.014 123.134 129.014 124.484Z" fill="#DDDDDD"/>
<path d="M107.448 117.041C109.06 117.041 110.372 118.351 110.372 119.963C110.372 120.85 111.092 121.57 111.979 121.57C112.866 121.57 113.586 120.85 113.586 119.963C113.586 117.139 111.657 114.779 109.055 114.068V112.875C109.055 111.988 108.336 111.268 107.448 111.268C106.561 111.268 105.841 111.988 105.841 112.875V114.068C103.239 114.779 101.311 117.139 101.311 119.963C101.311 123.347 104.064 126.1 107.448 126.1C109.06 126.1 110.372 127.413 110.372 129.024C110.372 130.635 109.06 131.945 107.448 131.945C105.837 131.945 104.525 130.635 104.525 129.024C104.525 128.137 103.805 127.417 102.918 127.417C102.03 127.417 101.311 128.137 101.311 129.024C101.311 131.848 103.239 134.208 105.841 134.919V136.112C105.841 136.999 106.561 137.719 107.448 137.719C108.336 137.719 109.055 136.999 109.055 136.112V134.919C111.657 134.208 113.586 131.848 113.586 129.024C113.586 125.64 110.832 122.886 107.448 122.886C105.837 122.886 104.525 121.574 104.525 119.963C104.525 118.351 105.837 117.041 107.448 117.041Z" fill="#181A20"/>
<defs>
<linearGradient id="paint0_linear_206_24623" x1="58.1601" y1="87.7125" x2="58.1601" y2="140.363" gradientUnits="userSpaceOnUse">
<stop stop-color="#DDDDDD" stop-opacity="0"/>
<stop offset="1" stop-color="#DDDDDD"/>
</linearGradient>
<linearGradient id="paint1_linear_206_24623" x1="32.1553" y1="13.1829" x2="32.1553" y2="19.6757" gradientUnits="userSpaceOnUse">
<stop stop-color="#DDDDDD" stop-opacity="0"/>
<stop offset="1" stop-color="#DDDDDD"/>
</linearGradient>
<linearGradient id="paint2_linear_206_24623" x1="32.1672" y1="22.8911" x2="32.1672" y2="45.3697" gradientUnits="userSpaceOnUse">
<stop stop-color="#DDDDDD" stop-opacity="0"/>
<stop offset="1" stop-color="#DDDDDD"/>
</linearGradient>
</defs>
</svg>
