<svg width="35" height="35" viewBox="0 0 35 35" fill="none" xmlns="http://www.w3.org/2000/svg">
<path d="M17.5004 33.0556C17.3386 33.0567 17.1788 33.0201 17.0337 32.9486L12.299 30.5861C10.0558 29.4707 8.17008 27.7492 6.85551 25.6167C5.54094 23.4842 4.85015 21.026 4.86146 18.5209V6.71808C4.86142 6.44552 4.96834 6.18383 5.15925 5.98928C5.35015 5.79474 5.60978 5.6829 5.8823 5.6778H9.25591C10.636 5.67052 11.9852 5.26912 13.1448 4.52086L16.9073 2.10975C17.0743 2.00332 17.2683 1.94678 17.4663 1.94678C17.6644 1.94678 17.8583 2.00332 18.0254 2.10975L21.7879 4.52086C22.9475 5.26912 24.2967 5.67052 25.6767 5.6778H29.0504C29.191 5.67123 29.3315 5.69327 29.4634 5.74259C29.5953 5.79192 29.7158 5.8675 29.8176 5.96476C29.9194 6.06202 30.0004 6.17894 30.0557 6.30843C30.111 6.43792 30.1394 6.57728 30.1392 6.71808V18.5209C30.1469 21.0264 29.4524 23.4839 28.1344 25.6148C26.8163 27.7456 24.9276 29.4645 22.6823 30.5764L17.9476 32.9389C17.8091 33.0108 17.6563 33.0507 17.5004 33.0556ZM6.92258 7.7778V18.5209C6.91665 20.6405 7.50462 22.7194 8.61983 24.522C9.73504 26.3245 11.3329 27.7786 13.2323 28.7195L17.5004 30.8584L21.7684 28.7195C23.6678 27.7786 25.2657 26.3245 26.3809 24.522C27.4961 22.7194 28.0841 20.6405 28.0781 18.5209V7.7778H25.7448C23.9548 7.77768 22.2028 7.26119 20.699 6.2903L17.5004 4.20975L14.3017 6.27086C12.8 7.24861 11.0479 7.77188 9.25591 7.7778H6.92258Z" fill="#181A20"/>
<path d="M17.5007 18.2777C16.5777 18.2777 15.6754 18.004 14.908 17.4912C14.1406 16.9784 13.5424 16.2496 13.1892 15.3969C12.836 14.5441 12.7436 13.6058 12.9237 12.7006C13.1037 11.7953 13.5482 10.9638 14.2008 10.3112C14.8535 9.65853 15.685 9.21407 16.5902 9.03401C17.4955 8.85394 18.4338 8.94636 19.2865 9.29957C20.1392 9.65278 20.8681 10.2509 21.3808 11.0183C21.8936 11.7858 22.1673 12.688 22.1673 13.611C22.1647 14.8479 21.6723 16.0334 20.7976 16.908C19.923 17.7826 18.7375 18.2751 17.5007 18.2777ZM17.5007 11.0152C16.9872 11.0152 16.4854 11.1674 16.0585 11.4526C15.6316 11.7379 15.2989 12.1433 15.1024 12.6176C14.9059 13.0919 14.8545 13.6139 14.9547 14.1174C15.0549 14.621 15.3021 15.0835 15.6651 15.4465C16.0282 15.8096 16.4907 16.0568 16.9942 16.157C17.4978 16.2571 18.0197 16.2057 18.494 16.0092C18.9684 15.8128 19.3738 15.4801 19.659 15.0532C19.9442 14.6263 20.0965 14.1244 20.0965 13.611C20.0939 12.9242 19.8193 12.2665 19.3328 11.7818C18.8462 11.297 18.1874 11.0249 17.5007 11.0249V11.0152Z" fill="#181A20"/>
<path d="M23.7218 23.9847H21.651C21.6484 23.4363 21.4294 22.911 21.0416 22.5232C20.6538 22.1354 20.1286 21.9164 19.5801 21.9139H15.419C14.8698 21.9139 14.3431 22.132 13.9547 22.5204C13.5664 22.9087 13.3482 23.4355 13.3482 23.9847H11.2773C11.2773 22.8862 11.7137 21.8328 12.4904 21.0561C13.2671 20.2794 14.3206 19.843 15.419 19.843H19.5704C20.6697 19.843 21.7242 20.2791 22.5024 21.0555C23.2807 21.8319 23.7192 22.8854 23.7218 23.9847Z" fill="#181A20"/>
</svg>
