<svg width="150" height="150" viewBox="0 0 150 150" fill="none" xmlns="http://www.w3.org/2000/svg">
<path d="M9.58371 96.2053C10.471 96.2053 11.1908 95.4854 11.1908 94.5981V93.8803C11.1908 92.9931 10.471 92.2732 9.58371 92.2732C8.69643 92.2732 7.97656 92.9931 7.97656 93.8803V94.5981C7.97656 95.4854 8.69643 96.2053 9.58371 96.2053Z" fill="#EB6753"/>
<path d="M7.97656 123.462C7.97656 124.349 8.69643 125.069 9.58371 125.069C10.471 125.069 11.1908 124.349 11.1908 123.462V100.179C11.1908 99.2919 10.471 98.572 9.58371 98.572C8.69643 98.572 7.97656 99.2919 7.97656 100.179V123.462Z" fill="#EB6753"/>
<path d="M103.603 26.7109C102.936 26.125 101.923 26.1899 101.335 26.8574C100.749 27.525 100.816 28.5399 101.481 29.1258L120.072 45.44C120.739 46.024 121.754 45.962 122.341 45.2935C122.927 44.626 122.86 43.611 122.194 43.0251L103.603 26.7109Z" fill="#EB6753"/>
<path d="M97.121 21.0253C96.4534 20.4436 95.4406 20.5084 94.8525 21.176C94.2687 21.8435 94.3357 22.8584 95.0032 23.4444L96.1563 24.4551C96.8343 25.045 97.8441 24.9652 98.4247 24.3044C99.0085 23.6369 98.9416 22.622 98.274 22.036L97.121 21.0253Z" fill="#EB6753"/>
<path d="M121.837 87.7157V82.9157H123.701C124.58 82.9157 125.309 82.2085 125.309 81.3086C125.309 80.4299 124.58 79.7014 123.701 79.7014H120.808V68.58H125.673C130.216 68.58 132.359 62.9443 128.93 59.9442L71.7585 9.77998C69.9156 8.15138 67.1085 8.15138 65.2442 9.77998L41.2227 30.8656V24.5871H43.4728C44.8656 24.5871 46.0014 23.4514 46.0014 22.0371V14.5156C46.0014 13.1014 44.8656 11.9656 43.4728 11.9656H18.2943C16.9014 11.9656 15.7657 13.1014 15.7657 14.5156V22.0371C15.7657 23.4514 16.9014 24.5871 18.2943 24.5871H20.5657V49.0157L8.11571 59.9442C4.7085 62.9443 6.82991 68.58 11.3728 68.58H16.2371V138.094C14.5656 138.137 12.8513 138.159 11.18 138.201C10.2799 138.244 9.59428 138.973 9.6156 139.851C9.63705 140.73 10.3442 141.416 11.2227 141.416H11.2442C12.2728 141.394 116.651 141.458 116.651 141.437C131.523 141.33 143.566 129.201 143.566 114.287C143.566 101.173 134.223 90.2228 121.837 87.7157ZM18.98 21.3728V15.1799H42.7871V21.3727L18.98 21.3728ZM38.0085 24.5871V33.6942L23.78 46.1871V24.5871H38.0085ZM11.3727 65.3657C9.78705 65.3657 9.03709 63.3942 10.2371 62.3442L67.3656 12.18C68.0299 11.6228 68.9942 11.6228 69.6371 12.18L126.808 62.3442C128.008 63.3942 127.258 65.3657 125.673 65.3657L11.3727 65.3657ZM69.3799 138.03H36.7657V89.7727C36.7657 88.4227 37.8586 87.3513 39.2084 87.3513H66.9585C68.287 87.3513 69.3799 88.4227 69.3799 89.7727L69.3799 138.03ZM72.5942 138.03V89.7727C72.5942 86.6657 70.0656 84.137 66.9585 84.137H39.2084C36.1014 84.137 33.5514 86.6657 33.5514 89.7727V138.03H19.4514V68.6013H117.594V79.7014H109.087C108.187 79.7014 107.48 80.4299 107.48 81.3086C107.48 82.2085 108.187 82.9157 109.087 82.9157H111.037V87.7157C98.6085 90.2442 89.3084 101.408 89.3084 114.287V114.308C89.3299 124.444 95.0727 133.444 103.516 138.03L72.5942 138.03ZM118.623 82.9157V87.2656C117.466 87.1585 115.516 87.1585 114.251 87.2656V82.9157H118.623ZM116.459 138.223C103.087 138.223 92.5227 127.251 92.5227 114.287C92.5227 101.173 103.366 90.1799 116.866 90.3942C129.723 90.6299 140.351 101.13 140.351 114.287C140.351 127.487 129.637 138.223 116.459 138.223Z" fill="#181A20"/>
<path d="M118.623 82.9157V87.2656C117.466 87.1585 115.516 87.1585 114.252 87.2656V82.9157H118.623Z" fill="#DDDDDD"/>
<path d="M18.9805 15.18H42.7876V21.3728H18.9805V15.18Z" fill="url(#paint0_linear_206_24651)"/>
<path d="M38.0078 24.587V33.6942L23.7793 46.1871V24.587H38.0078Z" fill="url(#paint1_linear_206_24651)"/>
<path d="M66.9584 87.3513H39.2084C37.8585 87.3513 36.7656 88.4227 36.7656 89.7727V138.03H69.3799V89.7727C69.3799 88.4227 68.287 87.3513 66.9584 87.3513ZM62.9085 114.373H60.7227C59.8228 114.373 59.1156 113.666 59.1156 112.766C59.1156 111.887 59.8228 111.159 60.7227 111.159H62.9085C63.787 111.159 64.5156 111.887 64.5156 112.766C64.5156 113.666 63.787 114.373 62.9085 114.373Z" fill="url(#paint2_linear_206_24651)"/>
<path d="M68.5436 31.2728C61.6651 31.2728 56.0723 36.8656 56.0723 43.7442C56.0723 50.6014 61.6651 56.1728 68.5436 56.1728C75.4007 56.1728 80.9723 50.6014 80.9723 43.7442C80.9723 36.8656 75.4007 31.2728 68.5436 31.2728ZM68.5436 52.9585C63.4437 52.9585 59.2866 48.8228 59.2866 43.7442C59.2866 38.6442 63.4437 34.4871 68.5436 34.4871C73.6223 34.4871 77.758 38.6442 77.758 43.7442C77.758 48.8228 73.6223 52.9585 68.5436 52.9585Z" fill="#181A20"/>
<path d="M77.7585 43.7442C77.7585 48.8228 73.6228 52.9585 68.5441 52.9585C63.4443 52.9585 59.2871 48.8228 59.2871 43.7442C59.2871 38.6442 63.4442 34.4871 68.5441 34.4871C73.6228 34.4871 77.7585 38.6442 77.7585 43.7442Z" fill="#DDDDDD"/>
<path d="M64.5153 112.766C64.5153 113.666 63.7866 114.373 62.9081 114.373H60.7224C59.8224 114.373 59.1152 113.666 59.1152 112.766C59.1152 111.887 59.8224 111.159 60.7224 111.159H62.9081C63.7867 111.159 64.5153 111.887 64.5153 112.766Z" fill="#181A20"/>
<path d="M95.6679 89.2765C96.0132 89.2765 96.3626 89.1656 96.6577 88.9333C96.9046 88.7408 97.1557 88.5483 97.409 88.3641C98.1267 87.841 98.2837 86.8365 97.7626 86.1187C97.2395 85.401 96.235 85.2398 95.5172 85.7651C95.2305 85.9744 94.9501 86.1878 94.6739 86.4054C93.975 86.9516 93.8536 87.9623 94.4019 88.6613C94.7178 89.0652 95.1908 89.2765 95.6679 89.2765Z" fill="#EB6753"/>
<path d="M83.0599 108.782C83.1728 108.807 83.2859 108.818 83.3989 108.818C84.1396 108.818 84.8072 108.301 84.9683 107.547C86.1821 101.883 88.9276 96.6321 92.9099 92.3653C93.5167 91.7166 93.4811 90.6995 92.8324 90.0948C92.1837 89.4879 91.1688 89.5235 90.5619 90.1722C86.182 94.866 83.1603 100.642 81.8252 106.873C81.6389 107.742 82.1914 108.596 83.0599 108.782Z" fill="#EB6753"/>
<path d="M116.451 96.0755C115.564 96.0755 114.844 96.7954 114.844 97.6826C114.844 98.5699 115.564 99.2898 116.451 99.2898C124.724 99.2898 131.453 106.02 131.453 114.292C131.453 122.572 124.724 129.311 116.451 129.311C111.172 129.311 106.373 126.615 103.621 122.1C103.159 121.344 102.171 121.103 101.412 121.564C100.654 122.026 100.413 123.016 100.876 123.774C104.218 129.254 110.042 132.525 116.451 132.525C126.496 132.525 134.668 124.345 134.668 114.292C134.668 104.247 126.496 96.0755 116.451 96.0755Z" fill="#181A20"/>
<path d="M118.044 111.608V105.158C118.044 104.28 117.337 103.551 116.437 103.551C115.558 103.551 114.83 104.28 114.83 105.158V111.608C112.558 112.294 110.887 114.394 110.887 116.901C110.887 119.966 113.372 122.451 116.437 122.451C119.501 122.451 122.008 119.966 122.008 116.901C122.008 114.394 120.337 112.294 118.044 111.608ZM116.437 119.237C115.151 119.237 114.101 118.187 114.101 116.901C114.101 115.616 115.151 114.544 116.437 114.544C117.722 114.544 118.794 115.616 118.794 116.901C118.794 118.187 117.722 119.237 116.437 119.237Z" fill="#181A20"/>
<path d="M118.794 116.901C118.794 118.187 117.723 119.237 116.437 119.237C115.152 119.237 114.102 118.187 114.102 116.901C114.102 115.616 115.152 114.544 116.437 114.544C117.723 114.544 118.794 115.616 118.794 116.901Z" fill="#DDDDDD"/>
<defs>
<linearGradient id="paint0_linear_206_24651" x1="30.884" y1="15.18" x2="30.884" y2="21.3728" gradientUnits="userSpaceOnUse">
<stop stop-color="#DDDDDD" stop-opacity="0"/>
<stop offset="1" stop-color="#DDDDDD"/>
</linearGradient>
<linearGradient id="paint1_linear_206_24651" x1="30.8935" y1="24.587" x2="30.8935" y2="46.1871" gradientUnits="userSpaceOnUse">
<stop stop-color="#DDDDDD" stop-opacity="0"/>
<stop offset="1" stop-color="#DDDDDD"/>
</linearGradient>
<linearGradient id="paint2_linear_206_24651" x1="53.0727" y1="87.3513" x2="53.0727" y2="138.03" gradientUnits="userSpaceOnUse">
<stop stop-color="#DDDDDD" stop-opacity="0"/>
<stop offset="1" stop-color="#DDDDDD"/>
</linearGradient>
</defs>
</svg>
