<svg width="159" height="44" viewBox="0 0 159 44" fill="none" xmlns="http://www.w3.org/2000/svg">
<path d="M54.726 22.862C54.726 21.63 54.968 20.5373 55.452 19.584C55.9507 18.6307 56.6253 17.8973 57.476 17.384C58.3267 16.8707 59.2727 16.614 60.314 16.614C61.106 16.614 61.8613 16.79 62.58 17.142C63.2987 17.4793 63.8707 17.934 64.296 18.506V12.72H67.42V29H64.296V27.196C63.9147 27.7973 63.3793 28.2813 62.69 28.648C62.0007 29.0147 61.2013 29.198 60.292 29.198C59.2653 29.198 58.3267 28.934 57.476 28.406C56.6253 27.878 55.9507 27.1373 55.452 26.184C54.968 25.216 54.726 24.1087 54.726 22.862ZM64.318 22.906C64.318 22.158 64.1713 21.52 63.878 20.992C63.5847 20.4493 63.1887 20.0387 62.69 19.76C62.1913 19.4667 61.656 19.32 61.084 19.32C60.512 19.32 59.984 19.4593 59.5 19.738C59.016 20.0167 58.62 20.4273 58.312 20.97C58.0187 21.498 57.872 22.1287 57.872 22.862C57.872 23.5953 58.0187 24.2407 58.312 24.798C58.62 25.3407 59.016 25.7587 59.5 26.052C59.9987 26.3453 60.5267 26.492 61.084 26.492C61.656 26.492 62.1913 26.3527 62.69 26.074C63.1887 25.7807 63.5847 25.37 63.878 24.842C64.1713 24.2993 64.318 23.654 64.318 22.906ZM72.4302 15.36C71.8875 15.36 71.4328 15.1913 71.0662 14.854C70.7142 14.502 70.5382 14.0693 70.5382 13.556C70.5382 13.0427 70.7142 12.6173 71.0662 12.28C71.4328 11.928 71.8875 11.752 72.4302 11.752C72.9728 11.752 73.4202 11.928 73.7722 12.28C74.1388 12.6173 74.3222 13.0427 74.3222 13.556C74.3222 14.0693 74.1388 14.502 73.7722 14.854C73.4202 15.1913 72.9728 15.36 72.4302 15.36ZM73.9482 16.812V29H70.8682V16.812H73.9482ZM80.5112 18.704C80.9072 18.0587 81.4205 17.5527 82.0512 17.186C82.6965 16.8193 83.4299 16.636 84.2512 16.636V19.87H83.4372C82.4692 19.87 81.7359 20.0973 81.2372 20.552C80.7532 21.0067 80.5112 21.7987 80.5112 22.928V29H77.4312V16.812H80.5112V18.704ZM98.0957 22.642C98.0957 23.082 98.0664 23.478 98.0077 23.83H89.0977C89.1711 24.71 89.4791 25.3993 90.0217 25.898C90.5644 26.3967 91.2317 26.646 92.0237 26.646C93.1677 26.646 93.9817 26.1547 94.4657 25.172H97.7877C97.4357 26.3453 96.7611 27.3133 95.7637 28.076C94.7664 28.824 93.5417 29.198 92.0897 29.198C90.9164 29.198 89.8604 28.9413 88.9217 28.428C87.9977 27.9 87.2717 27.1593 86.7437 26.206C86.2304 25.2527 85.9737 24.1527 85.9737 22.906C85.9737 21.6447 86.2304 20.5373 86.7437 19.584C87.2571 18.6307 87.9757 17.8973 88.8997 17.384C89.8237 16.8707 90.8871 16.614 92.0897 16.614C93.2484 16.614 94.2824 16.8633 95.1917 17.362C96.1157 17.8607 96.8271 18.572 97.3257 19.496C97.8391 20.4053 98.0957 21.454 98.0957 22.642ZM94.9057 21.762C94.8911 20.97 94.6051 20.3393 94.0477 19.87C93.4904 19.386 92.8084 19.144 92.0017 19.144C91.2391 19.144 90.5937 19.3787 90.0657 19.848C89.5524 20.3027 89.2371 20.9407 89.1197 21.762H94.9057ZM99.9919 22.906C99.9919 21.6447 100.249 20.5447 100.762 19.606C101.275 18.6527 101.987 17.9193 102.896 17.406C103.805 16.878 104.847 16.614 106.02 16.614C107.531 16.614 108.777 16.9953 109.76 17.758C110.757 18.506 111.425 19.562 111.762 20.926H108.44C108.264 20.398 107.963 19.9873 107.538 19.694C107.127 19.386 106.614 19.232 105.998 19.232C105.118 19.232 104.421 19.5547 103.908 20.2C103.395 20.8307 103.138 21.7327 103.138 22.906C103.138 24.0647 103.395 24.9667 103.908 25.612C104.421 26.2427 105.118 26.558 105.998 26.558C107.245 26.558 108.059 26.0007 108.44 24.886H111.762C111.425 26.206 110.757 27.2547 109.76 28.032C108.763 28.8093 107.516 29.198 106.02 29.198C104.847 29.198 103.805 28.9413 102.896 28.428C101.987 27.9 101.275 27.1667 100.762 26.228C100.249 25.2747 99.9919 24.1673 99.9919 22.906ZM118.044 19.342V25.238C118.044 25.6487 118.14 25.9493 118.33 26.14C118.536 26.316 118.873 26.404 119.342 26.404H120.772V29H118.836C116.24 29 114.942 27.7387 114.942 25.216V19.342H113.49V16.812H114.942V13.798H118.044V16.812H120.772V19.342H118.044ZM128.84 29.198C127.666 29.198 126.61 28.9413 125.672 28.428C124.733 27.9 123.992 27.1593 123.45 26.206C122.922 25.2527 122.658 24.1527 122.658 22.906C122.658 21.6593 122.929 20.5593 123.472 19.606C124.029 18.6527 124.784 17.9193 125.738 17.406C126.691 16.878 127.754 16.614 128.928 16.614C130.101 16.614 131.164 16.878 132.118 17.406C133.071 17.9193 133.819 18.6527 134.362 19.606C134.919 20.5593 135.198 21.6593 135.198 22.906C135.198 24.1527 134.912 25.2527 134.34 26.206C133.782 27.1593 133.02 27.9 132.052 28.428C131.098 28.9413 130.028 29.198 128.84 29.198ZM128.84 26.514C129.397 26.514 129.918 26.382 130.402 26.118C130.9 25.8393 131.296 25.4287 131.59 24.886C131.883 24.3433 132.03 23.6833 132.03 22.906C132.03 21.7473 131.722 20.86 131.106 20.244C130.504 19.6133 129.764 19.298 128.884 19.298C128.004 19.298 127.263 19.6133 126.662 20.244C126.075 20.86 125.782 21.7473 125.782 22.906C125.782 24.0647 126.068 24.9593 126.64 25.59C127.226 26.206 127.96 26.514 128.84 26.514ZM140.977 18.704C141.373 18.0587 141.886 17.5527 142.517 17.186C143.162 16.8193 143.895 16.636 144.717 16.636V19.87H143.903C142.935 19.87 142.201 20.0973 141.703 20.552C141.219 21.0067 140.977 21.7987 140.977 22.928V29H137.897V16.812H140.977V18.704ZM158.891 16.812L151.345 34.764H148.067L150.707 28.692L145.823 16.812H149.277L152.423 25.326L155.613 16.812H158.891Z" fill="#181A20"/>
<rect width="44" height="44" rx="20" fill="#EB6753"/>
<g clip-path="url(#clip0_206_25157)">
<path d="M32.7715 22.1168L31.6482 21.1411V30.3498C31.6482 31.8994 30.3875 33.1599 28.8381 33.1599H25.4622C25.7456 32.8695 26.0459 32.5469 26.348 32.1981C26.6128 31.8925 26.8596 31.5885 27.0892 31.2866H28.8379C29.3544 31.2866 29.7747 30.8663 29.7747 30.3498V19.5142L22 12.7625L14.2252 19.5142V30.3498C14.2252 30.8663 14.6454 31.2866 15.1619 31.2866H16.9108C17.1402 31.5883 17.387 31.8925 17.652 32.1981C17.9541 32.5467 18.2544 32.8695 18.5377 33.1599H15.1619C13.6125 33.1599 12.3518 31.8994 12.3518 30.3498V21.1411L11.2283 22.1168L10 20.7023L22 10.2812L34 20.7023L32.7715 22.1168ZM22 24.2099C21.224 24.2099 20.5948 24.8389 20.5948 25.6149C20.5948 26.3909 21.224 27.02 22 27.02C22.776 27.02 23.4052 26.3909 23.4052 25.6149C23.4052 24.8389 22.776 24.2099 22 24.2099ZM27.3849 25.899C27.3849 27.3862 26.5597 29.0926 24.9321 30.9713C23.7798 32.3013 22.6392 33.2343 22.5912 33.2733L22 33.7546L21.4086 33.2733C21.3606 33.2343 20.22 32.3013 19.0677 30.9713C17.4401 29.0926 16.6149 27.3862 16.6149 25.899V25.6185C16.6149 22.6491 19.0306 20.2334 22 20.2334C24.9692 20.2334 27.3849 22.6491 27.3849 25.6185V25.899ZM25.5116 25.6185C25.5116 23.6822 23.9362 22.1068 22 22.1068C20.0637 22.1068 18.4884 23.6822 18.4884 25.6185V25.8992C18.4884 26.8937 19.197 28.2595 20.4837 29.7446C21.0416 30.3886 21.6006 30.9333 22.0026 31.3032C23.3434 30.0737 25.5114 27.7052 25.5114 25.8992V25.6185H25.5116Z" fill="white"/>
</g>
<defs>
<clipPath id="clip0_206_25157">
<rect width="24" height="24" fill="white" transform="translate(10 10)"/>
</clipPath>
</defs>
</svg>
